<svg xmlns="http://www.w3.org/2000/svg" xmlns:xlink="http://www.w3.org/1999/xlink" width="12" height="16" version="1.1" viewBox="0 0 12 16"><title>icon-note-text</title><desc>Created with Sketch.</desc><g id="Page-1" fill="none" fill-rule="evenodd" stroke="none" stroke-width="1"><g id="Artboard" transform="translate(-323.000000, -266.000000)"><g id="icon-note-text" transform="translate(319.000000, 264.000000)"><rect id="Rectangle-7" width="20" height="20" x="0" y="0" fill="#BFBFBF" opacity="0"/><g id="file-text" stroke="#8A8C8D" stroke-linecap="round" stroke-linejoin="round" stroke-width="1.25" transform="translate(5.000000, 3.500000)"><path id="Shape" d="M6.25,0 L1.25,0 C0.559644063,0 0,0.582029825 0,1.3 L0,11.7 C0,12.4179702 0.559644063,13 1.25,13 L8.75,13 C9.44035594,13 10,12.4179702 10,11.7 L10,3.9 L6.25,0 Z"/><polyline id="Shape" points="6.25 0 6.25 3.9 10 3.9"/><path id="Shape" d="M7.5,7.15 L2.5,7.15"/><path id="Shape" d="M7.5,9.75 L2.5,9.75"/><polyline id="Shape" points="3.75 4.55 3.125 4.55 2.5 4.55"/></g></g></g></g></svg>